<svg width="49" height="49" viewBox="0 0 49 49" fill="none" xmlns="http://www.w3.org/2000/svg">
<path d="M42.875 20.4165C42.875 34.7082 24.5 46.9582 24.5 46.9582C24.5 46.9582 6.125 34.7082 6.125 20.4165C6.125 15.5431 8.06093 10.8694 11.5069 7.42342C14.9529 3.97744 19.6266 2.0415 24.5 2.0415C29.3734 2.0415 34.0471 3.97744 37.4931 7.42342C40.9391 10.8694 42.875 15.5431 42.875 20.4165Z" fill="#0500FF" stroke="white" stroke-width="2" stroke-linecap="round" stroke-linejoin="round"/>
<path d="M24.5 26.5415C27.8827 26.5415 30.625 23.7992 30.625 20.4165C30.625 17.0338 27.8827 14.2915 24.5 14.2915C21.1173 14.2915 18.375 17.0338 18.375 20.4165C18.375 23.7992 21.1173 26.5415 24.5 26.5415Z" stroke="white" stroke-width="2" stroke-linecap="round" stroke-linejoin="round"/>
</svg>
