<svg width="39" height="39" viewBox="0 0 39 39" fill="none" xmlns="http://www.w3.org/2000/svg">
<path d="M35.75 27.4952V32.3702C35.7518 32.8227 35.6591 33.2707 35.4778 33.6853C35.2965 34.1 35.0306 34.4722 34.6971 34.7782C34.3636 35.0841 33.9699 35.3171 33.5412 35.4621C33.1125 35.607 32.6582 35.6609 32.2075 35.6202C27.2071 35.0768 22.4038 33.3681 18.1837 30.6314C14.2574 28.1365 10.9286 24.8077 8.4337 20.8814C5.68742 16.6421 3.97835 11.8155 3.44495 6.79266C3.40434 6.34329 3.45775 5.89039 3.60177 5.4628C3.74578 5.0352 3.97725 4.64228 4.28145 4.30904C4.58564 3.97581 4.95589 3.70956 5.36861 3.52726C5.78134 3.34495 6.22751 3.25058 6.6787 3.25016H11.5537C12.3423 3.2424 13.1069 3.52166 13.7048 4.0359C14.3028 4.55014 14.6933 5.26426 14.8037 6.04516C15.0095 7.60527 15.3911 9.13709 15.9412 10.6114C16.1598 11.193 16.2072 11.8251 16.0776 12.4328C15.9479 13.0405 15.6469 13.5983 15.21 14.0402L13.1462 16.1039C15.4595 20.1722 18.8279 23.5406 22.8962 25.8539L24.96 23.7902C25.4018 23.3533 25.9596 23.0522 26.5673 22.9226C27.175 22.793 27.8071 22.8403 28.3887 23.0589C29.863 23.6091 31.3948 23.9906 32.955 24.1964C33.7443 24.3078 34.4652 24.7054 34.9806 25.3136C35.4959 25.9218 35.7697 26.6982 35.75 27.4952Z" fill="#0500FF" stroke="white" stroke-width="2" stroke-linecap="round" stroke-linejoin="round"/>
</svg>
