<svg width="68" height="53" viewBox="0 0 68 53" fill="none" xmlns="http://www.w3.org/2000/svg">
<path d="M9.47318 4.35384C9.62133 5.22803 9.96765 6.20457 10.6779 6.49746C11.9773 7.03337 13.9266 7.03337 14.5763 5.96156C15.226 4.88975 15.3704 3.5228 13.4212 2.45099C11.8618 1.59354 9.84922 2.22685 9.52278 3.5228C9.41928 3.9337 9.40447 3.94843 9.47318 4.35384ZM9.47318 4.35384C7.92552 4.80043 5.13791 4.59484 3.53072 7.03337C1.07604 10.7577 2.23123 19.3592 2.5561 20.431C2.88097 21.5028 5.80484 28.7375 12.3022 30.8811M12.3022 30.8811C18.7997 33.0247 24.3225 31.417 25.2971 30.8811M12.3022 30.8811C14.3598 33.1141 18.5398 37.7943 18.7997 38.6517M25.2971 30.8811C26.2717 30.3452 33.4188 26.3259 34.7183 22.0387C35.7579 18.6089 37.1367 12.6334 34.7183 8.37313C33.416 6.07903 31.1447 5.21128 28.5458 4.35384M25.2971 30.8811C21.8854 33.0247 19.1245 39.7235 18.7997 38.6517M28.5458 4.35384C28.3292 5.24702 27.3762 6.92618 25.2971 6.49746C22.6981 5.96156 23.023 4.35385 23.3478 3.28204C23.6727 2.21023 25.6219 1.67434 26.5965 2.21023C27.3762 2.63895 28.2209 3.81794 28.5458 4.35384ZM18.7997 38.6517C18.6914 40.2594 18.7347 43.85 19.7743 45.3505C21.0737 47.2262 23.023 50.7096 29.5204 50.9775C36.0178 51.2455 41.5406 49.1019 43.8147 45.3505C46.0888 41.5992 44.7893 22.0387 44.7893 20.6989C44.7893 16.6525 48.5072 13.9729 53.3803 13.705C58.2533 13.437 61.8269 15.3127 62.4766 19.064C62.9964 22.0651 62.5489 33.8286 62.3323 39.1876M62.3323 39.1876C61.466 39.6342 59.5528 40.2323 59.4085 41.8672C59.2881 43.2298 60.0769 45.1285 62.0074 45.3505C64.101 45.5913 65.581 44.5467 65.9059 43.2069C66.3751 41.2718 65.0756 39.6964 62.3323 39.1876Z" stroke="black" stroke-width="4"/>
</svg>
